<svg xmlns="http://www.w3.org/2000/svg" xmlns:xlink="http://www.w3.org/1999/xlink" width="402.115" height="91.977" viewBox="0 0 402.115 91.977"><defs><linearGradient id="linear-gradient" x1=".217" x2="1" y1=".166" y2="1" gradientUnits="objectBoundingBox"><stop offset="0" stop-color="#2efae2"/><stop offset="1" stop-color="#2751ff"/></linearGradient><linearGradient id="linear-gradient-2" x1=".99" x2="-.178" y1="1.195" y2="-.504" gradientUnits="objectBoundingBox"><stop offset="0" stop-color="#2efae2"/><stop offset="1" stop-color="#2756f9"/></linearGradient></defs><g id="Group_3" data-name="Group 3" transform="translate(-264.877 -668.114)"><g id="Group_2" data-name="Group 2" transform="translate(264.876 668.114)"><g id="Group_1" data-name="Group 1" transform="translate(0 0)"><path id="Union_1" fill="url(#linear-gradient)" d="M-40.591,69.274a3.285,3.285,0,0,1-3.285-3.285V33.138h65.7V65.989a3.285,3.285,0,0,1-3.285,3.285ZM2.115,56.955V58.6a.821.821,0,0,0,.822.822h11.5a.821.821,0,0,0,.822-.822V56.955a.821.821,0,0,0-.822-.821H2.937A.821.821,0,0,0,2.115,56.955Zm-39.421,0V58.6a.821.821,0,0,0,.821.822h18.068A.821.821,0,0,0-17.6,58.6V56.955a.821.821,0,0,0-.822-.821H-36.485A.82.82,0,0,0-37.306,56.955ZM2.115,44.636v3.286a1.642,1.642,0,0,0,1.643,1.642h9.856a1.642,1.642,0,0,0,1.642-1.642V44.636a1.642,1.642,0,0,0-1.642-1.643H3.758A1.642,1.642,0,0,0,2.115,44.636ZM-37.306,47.1v1.643a.821.821,0,0,0,.821.822H-5.276a.821.821,0,0,0,.821-.822V47.1a.82.82,0,0,0-.821-.821H-36.485A.82.82,0,0,0-37.306,47.1Zm-6.57-17.247V24.926a1.641,1.641,0,0,1,1.642-1.642H20.183a1.642,1.642,0,0,1,1.642,1.642v4.927Zm39.418-6.6a1.646,1.646,0,0,1-1.164-.482A1.643,1.643,0,0,1-6.1,21.6V11.785a1.642,1.642,0,0,0-1.642-1.642h-6.57a1.642,1.642,0,0,0-1.642,1.642V21.61a1.643,1.643,0,0,1-1.634,1.643l-11.5.03a1.642,1.642,0,0,1-1.642-1.642V4.815l18.928-15.589a1.252,1.252,0,0,1,1.57,0L8.685,4.8V21.641a1.642,1.642,0,0,1-1.643,1.642ZM13.91,4.907l-24.149-19.89a1.252,1.252,0,0,0-1.57,0L-35.957,4.907a1.233,1.233,0,0,1-.9.276,1.232,1.232,0,0,1-.833-.444l-2.618-3.182a1.232,1.232,0,0,1,.165-1.735l25.987-21.4a4.926,4.926,0,0,1,6.262,0l9.191,7.562v-7.455A1.231,1.231,0,0,1,2.525-22.7H8.275a1.231,1.231,0,0,1,1.231,1.231v14.22L18.088-.178a1.231,1.231,0,0,1,.175,1.738L15.646,4.742a1.232,1.232,0,0,1-1.735.165Z" data-name="Union 1" transform="translate(43.876 22.704)"/></g></g><path id="Path_1" fill="url(#linear-gradient-2)" d="M19.27-3.279-.654-49.363H10.9L28.239-8.548H21.476L39.113-49.363H49.7L29.815-3.279Zm34.208,0V-38.7h10.27V-3.279Zm5.135-40.356A6.514,6.514,0,0,1,54-45.281a5.338,5.338,0,0,1-1.777-4.082A5.338,5.338,0,0,1,54-53.444a6.514,6.514,0,0,1,4.608-1.646,6.766,6.766,0,0,1,4.608,1.547A5.039,5.039,0,0,1,65-49.56a5.642,5.642,0,0,1-1.745,4.246A6.412,6.412,0,0,1,58.613-43.635ZM73.293-3.279V-52.127h10.27V-3.279Zm19.793,0V-52.127h10.27V-3.279Zm41.465,0v-6.9l-.616-1.553V-24.086a6.562,6.562,0,0,0-2.011-5.128q-2.01-1.819-6.187-1.819a18.074,18.074,0,0,0-5.534.876,14.852,14.852,0,0,0-4.677,2.391l-3.667-7.147a21.408,21.408,0,0,1,6.995-3.187,31.841,31.841,0,0,1,8.287-1.093q8.13,0,12.6,3.81T144.2-23.509V-3.279Zm-10.761.5a16.531,16.531,0,0,1-7.095-1.4,10.627,10.627,0,0,1-4.536-3.831,9.894,9.894,0,0,1-1.574-5.489A9.908,9.908,0,0,1,112.124-19a10.066,10.066,0,0,1,4.895-3.727,23.8,23.8,0,0,1,8.753-1.35h9.372v5.985h-8.233q-3.641,0-4.986,1.174a3.812,3.812,0,0,0-1.344,3.006,3.682,3.682,0,0,0,1.531,3.086,6.818,6.818,0,0,0,4.209,1.161,9.049,9.049,0,0,0,4.645-1.2,6.8,6.8,0,0,0,2.969-3.614l1.551,4.769a9.052,9.052,0,0,1-4.057,5.157A14.694,14.694,0,0,1,123.79-2.779Zm27.627-27.476,4.338-15.8,1.458,5.951a6.552,6.552,0,0,1-4.606-1.669,5.848,5.848,0,0,1-1.82-4.534,6.006,6.006,0,0,1,1.834-4.607,6.41,6.41,0,0,1,4.553-1.715,6.279,6.279,0,0,1,4.552,1.735,6.091,6.091,0,0,1,1.793,4.587,11.127,11.127,0,0,1-.125,1.649A12.3,12.3,0,0,1,162.9-42.7q-.368,1.124-1.155,2.951l-3.814,9.491Zm29.76,27.476a34.284,34.284,0,0,1-8.668-1.087,22.843,22.843,0,0,1-6.665-2.706l3.446-7.347a21.824,21.824,0,0,0,5.739,2.45,24.309,24.309,0,0,0,6.6.936,10.708,10.708,0,0,0,5.024-.858,2.628,2.628,0,0,0,1.491-2.363,2.026,2.026,0,0,0-1.159-1.867,10,10,0,0,0-3.062-.977q-1.9-.337-4.188-.653a43.618,43.618,0,0,1-4.583-.889,16.033,16.033,0,0,1-4.2-1.678,8.573,8.573,0,0,1-3.062-3.014,9.457,9.457,0,0,1-1.159-4.963,9.488,9.488,0,0,1,1.955-5.911,12.815,12.815,0,0,1,5.612-4.027,23.734,23.734,0,0,1,8.8-1.46,35.935,35.935,0,0,1,7.4.784,20.767,20.767,0,0,1,6.244,2.258L193.3-28.805a17.371,17.371,0,0,0-5.153-2.074,23.673,23.673,0,0,0-5.01-.56,10.4,10.4,0,0,0-5.043.924,2.7,2.7,0,0,0-1.577,2.337,2.157,2.157,0,0,0,1.159,1.979,10.028,10.028,0,0,0,3.062,1.049q1.9.376,4.188.693a41.153,41.153,0,0,1,4.57.9,16.825,16.825,0,0,1,4.188,1.671,8.465,8.465,0,0,1,3.062,2.975,9.264,9.264,0,0,1,1.159,4.9A9.242,9.242,0,0,1,195.94-8.2a12.8,12.8,0,0,1-5.692,3.98A25.249,25.249,0,0,1,181.177-2.779Zm38.975-10.188V-20.1l21.737-29.262h11.2L231.842-20.1l-5.216-1.577H262.9v8.711ZM245-3.279v-9.688l.3-8.711v-8.593h10.087V-3.279Zm63.046.776q-9.805,0-15.332-5.45T287.189-23.58V-49.363h10.69v25.441q0,6.537,2.7,9.458a9.788,9.788,0,0,0,7.558,2.921,9.779,9.779,0,0,0,7.571-2.921q2.69-2.921,2.69-9.458V-49.363h10.507V-23.58q0,10.176-5.528,15.626T308.049-2.5Z" data-name="Path 1" transform="translate(338.083 742.899)"/></g></svg>